<svg width="20" height="20" viewBox="0 0 20 20" fill="none" xmlns="http://www.w3.org/2000/svg">
<path d="M19.6494 17.875C18.2216 15.4065 16.0212 13.6365 13.4534 12.7975C14.7236 12.0414 15.7104 10.8892 16.2624 9.51792C16.8143 8.14665 16.9009 6.63211 16.5088 5.20688C16.1167 3.78165 15.2676 2.52454 14.0918 1.6286C12.9161 0.732664 11.4788 0.247437 10.0006 0.247437C8.52243 0.247437 7.08512 0.732664 5.90939 1.6286C4.73367 2.52454 3.88455 3.78165 3.49244 5.20688C3.10033 6.63211 3.1869 8.14665 3.73886 9.51792C4.29082 10.8892 5.27765 12.0414 6.54781 12.7975C3.98 13.6356 1.77968 15.4056 0.35187 17.875C0.29951 17.9604 0.264779 18.0554 0.249728 18.1544C0.234677 18.2534 0.23961 18.3544 0.264237 18.4515C0.288863 18.5486 0.332683 18.6397 0.393112 18.7196C0.453542 18.7995 0.529355 18.8664 0.616081 18.9165C0.702806 18.9666 0.798687 18.9988 0.898065 19.0113C0.997443 19.0237 1.09831 19.0161 1.1947 18.989C1.2911 18.9618 1.38108 18.9156 1.45933 18.8531C1.53758 18.7906 1.60251 18.713 1.65031 18.625C3.41656 15.5725 6.53843 13.75 10.0006 13.75C13.4628 13.75 16.5847 15.5725 18.3509 18.625C18.3987 18.713 18.4637 18.7906 18.5419 18.8531C18.6202 18.9156 18.7101 18.9618 18.8065 18.989C18.9029 19.0161 19.0038 19.0237 19.1032 19.0113C19.2026 18.9988 19.2984 18.9666 19.3852 18.9165C19.4719 18.8664 19.5477 18.7995 19.6081 18.7196C19.6686 18.6397 19.7124 18.5486 19.737 18.4515C19.7616 18.3544 19.7666 18.2534 19.7515 18.1544C19.7365 18.0554 19.7017 17.9604 19.6494 17.875ZM4.75062 6.99999C4.75062 5.96164 5.05853 4.9466 5.6354 4.08324C6.21228 3.21989 7.03222 2.54698 7.99153 2.14962C8.95084 1.75226 10.0064 1.64829 11.0248 1.85086C12.0432 2.05344 12.9787 2.55345 13.7129 3.28768C14.4472 4.0219 14.9472 4.95736 15.1497 5.97576C15.3523 6.99416 15.2483 8.04976 14.851 9.00908C14.4536 9.96839 13.7807 10.7883 12.9174 11.3652C12.054 11.9421 11.039 12.25 10.0006 12.25C8.60869 12.2485 7.2742 11.6949 6.28995 10.7107C5.30571 9.72641 4.75211 8.39192 4.75062 6.99999Z" fill="white"/>
</svg>
