<svg width="37" height="48" viewBox="0 0 37 48" fill="none" xmlns="http://www.w3.org/2000/svg">
<path d="M35.6194 38.8238C35.6194 33.9319 32.8262 29.9719 29.6883 29.188C26.724 28.4476 29.0883 33.0995 27.4645 34.3761C26.5172 35.1191 22.524 30.9012 20.793 30.6689C19.5547 30.5029 20.5632 34.3761 19.6823 34.3761C18.1734 34.3761 17.8134 30.4748 16.3479 30.6689C14.8823 30.8629 12.3087 35.1523 11.1598 34.3761C9.62021 33.337 10.353 28.7744 7.45255 29.188C4.55212 29.6016 1.52148 36.7557 1.52148 40.8357C1.52148 49.9557 10.5623 46.9787 19.6823 46.9787C28.8023 46.9787 35.6194 47.9463 35.6194 38.8238Z" fill="#BFFF00"/>
<path d="M30.4312 26.2238V12.8808C30.4312 6.32933 25.1231 1.02124 18.5716 1.02124C12.0201 1.02124 6.70947 6.32933 6.70947 12.8808V26.2238" stroke="black" stroke-width="2" stroke-linecap="round" stroke-linejoin="round"/>
<path d="M16.3453 30.6715C14.1215 30.6715 13.3811 34.3787 11.1572 34.3787H9.67383L10.4142 28.4477C11.1087 24.7404 14.1215 24 14.1215 24" stroke="black" stroke-width="2" stroke-linecap="round" stroke-linejoin="round"/>
<path d="M14.1216 24V27.7072C14.1216 27.7072 14.1216 30.6715 16.3454 30.6715C17.165 30.6715 17.0858 31.3353 17.0858 32.1549C17.0858 32.1549 17.0858 35.1191 18.5692 37.343" stroke="black" stroke-width="2" stroke-linecap="round" stroke-linejoin="round"/>
<path d="M20.793 30.6715C23.0168 30.6715 23.7572 34.3787 25.9811 34.3787H27.4645L26.724 28.4477C26.0296 24.7404 23.0168 24 23.0168 24" stroke="black" stroke-width="2" stroke-linecap="round" stroke-linejoin="round"/>
<path d="M23.0168 24V27.7072C23.0168 27.7072 23.0168 30.6715 20.793 30.6715" stroke="black" stroke-width="2" stroke-linecap="round" stroke-linejoin="round"/>
<path d="M20.7927 30.6714C19.9757 30.6714 20.0523 31.3352 20.0523 32.1548C20.0523 32.1548 20.0523 35.1191 18.5688 37.3429V44.0144" stroke="black" stroke-width="2" stroke-linecap="round" stroke-linejoin="round"/>
<path d="M27.4644 12.8809C23.7571 12.8809 23.0167 9.91663 23.0167 9.91663V12.8809H9.67627V15.8451C9.67627 20.7575 13.6592 24.7405 18.5716 24.7405C23.4839 24.7405 27.4669 20.7575 27.4669 15.8451" stroke="black" stroke-width="2" stroke-linecap="round" stroke-linejoin="round"/>
<path d="M26.7878 28.7744L29.6882 29.188C33.3954 29.9284 35.6192 32.8952 35.6192 37.3429V44.7548C35.6192 44.7548 32.9716 46.7412 20.7954 46.9582V46.9786H16.3478V46.9582C4.1716 46.7386 1.52394 44.7548 1.52394 44.7548V37.3429C1.52394 32.8952 3.74777 29.931 7.455 29.188L10.3554 28.7744" stroke="black" stroke-width="2" stroke-linecap="round" stroke-linejoin="round"/>
</svg>
