<svg width="42" height="48" viewBox="0 0 42 48" fill="none" xmlns="http://www.w3.org/2000/svg">
<path d="M31.1713 8.43316C31.1713 4.34039 26.5245 1.02124 20.7926 1.02124C15.0607 1.02124 10.4139 4.34039 10.4139 8.43316C10.4139 9.78379 7.30666 11.7906 8.19006 12.8808C9.98496 15.0944 16.9501 15.845 20.7901 15.845C24.1373 15.845 30.7526 15.4186 32.6496 13.6595C34.0003 12.4084 31.1662 10.1361 31.1662 8.43316H31.1713Z" fill="#BFFF00"/>
<path fill-rule="evenodd" clip-rule="evenodd" d="M11.8999 17.0477C12.464 17.0477 12.9212 17.5049 12.9212 18.0689C12.9212 18.5947 12.9834 19.101 13.1233 19.5706C14.1021 22.8159 17.2131 25.2026 20.7953 25.2026C24.38 25.2026 27.4935 22.8238 28.4668 19.5771C28.6069 19.1073 28.6693 18.6006 28.6693 18.0715C28.6693 17.5075 29.1265 17.0502 29.6906 17.0502C30.2546 17.0502 30.7119 17.5075 30.7119 18.0715C30.7119 18.7578 30.6313 19.4664 30.4241 20.1608L30.4238 20.162C29.1907 24.2781 25.2782 27.2451 20.7953 27.2451C16.3099 27.2451 12.4051 24.2657 11.1672 20.1585L11.1664 20.1557C10.9593 19.4614 10.8787 18.7529 10.8787 18.0689C10.8787 17.5049 11.3359 17.0477 11.8999 17.0477Z" fill="black"/>
<path fill-rule="evenodd" clip-rule="evenodd" d="M8.19266 11.1191C8.7567 11.1191 9.21394 11.5764 9.21394 12.1404V12.5341C9.46659 12.8157 9.84958 13.0979 10.3961 13.3639C11.0805 13.697 11.9628 13.976 13.0228 14.1972C15.1439 14.6397 17.8439 14.8238 20.7927 14.8238C23.7414 14.8238 26.442 14.6397 28.5635 14.1971C29.6236 13.976 30.506 13.6969 31.1902 13.3639C31.7367 13.0979 32.1193 12.8159 32.3714 12.5345V12.1404C32.3714 11.5764 32.8286 11.1191 33.3927 11.1191C33.9567 11.1191 34.4139 11.5764 34.4139 12.1404V12.8808C34.4139 13.0823 34.3544 13.2792 34.2427 13.4469C33.7373 14.206 32.9654 14.7715 32.0841 15.2005C31.1982 15.6317 30.1404 15.9547 28.9806 16.1967C26.662 16.6803 23.803 16.8664 20.7927 16.8664C17.7823 16.8664 14.9239 16.6803 12.6057 16.1967C11.446 15.9547 10.3884 15.6317 9.50231 15.2005C8.62095 14.7716 7.84908 14.2062 7.34306 13.4476C7.23112 13.2798 7.17139 13.0826 7.17139 12.8808V12.1404C7.17139 11.5764 7.62863 11.1191 8.19266 11.1191Z" fill="black"/>
<path fill-rule="evenodd" clip-rule="evenodd" d="M12.3787 11.9562C12.4805 11.4014 13.0127 11.0342 13.5675 11.1359C15.4666 11.4841 18.4293 11.8596 20.7952 11.8596C23.1611 11.8596 26.1237 11.4841 28.0229 11.1359C28.5777 11.0342 29.1099 11.4014 29.2116 11.9562C29.3134 12.511 28.9461 13.0432 28.3913 13.1449C26.4198 13.5065 23.3263 13.9021 20.7952 13.9021C18.2641 13.9021 15.1705 13.5065 13.1991 13.1449C12.6443 13.0432 12.277 12.511 12.3787 11.9562Z" fill="black"/>
<path fill-rule="evenodd" clip-rule="evenodd" d="M19.0433 0.125015C19.609 0.0446159 20.1931 0 20.7927 0C21.3924 0 21.9766 0.0446323 22.5424 0.125059C23.4361 0.252728 24.0378 1.03231 24.0378 1.86894V4.72851C24.0378 5.29255 23.5806 5.74979 23.0165 5.74979C22.4525 5.74979 21.9953 5.29255 21.9953 4.72851V2.11358C21.6019 2.06742 21.2007 2.04255 20.7927 2.04255C20.3847 2.04255 19.9835 2.06742 19.5902 2.11358V4.72851C19.5902 5.29255 19.1329 5.74979 18.5689 5.74979C18.0048 5.74979 17.5476 5.29255 17.5476 4.72851V1.86894C17.5476 1.0356 18.1434 0.25282 19.0433 0.125015Z" fill="black"/>
<path fill-rule="evenodd" clip-rule="evenodd" d="M22.0149 1.78234C22.1247 1.2291 22.6622 0.869636 23.2154 0.979458C28.3897 2.00657 32.1928 6.37739 32.1928 10.6569C32.1928 11.2209 31.7355 11.6782 31.1715 11.6782C30.6074 11.6782 30.1502 11.2209 30.1502 10.6569C30.1502 7.52201 27.2129 3.85538 22.8177 2.98292C22.2645 2.8731 21.905 2.33558 22.0149 1.78234Z" fill="black"/>
<path fill-rule="evenodd" clip-rule="evenodd" d="M19.5705 1.78224C19.6803 2.33547 19.3209 2.87302 18.7677 2.9829C14.3748 3.85539 11.4351 7.52224 11.4351 10.6569C11.4351 11.2209 10.9779 11.6782 10.4138 11.6782C9.84982 11.6782 9.39258 11.2209 9.39258 10.6569C9.39258 6.37717 13.1985 2.00657 18.3698 0.979478C18.923 0.8696 19.4606 1.22901 19.5705 1.78224Z" fill="black"/>
<path fill-rule="evenodd" clip-rule="evenodd" d="M8.9821 29.6513C9.54548 29.6784 9.98027 30.157 9.95321 30.7204L9.21279 46.1391C9.18573 46.7025 8.70708 47.1373 8.1437 47.1102C7.58031 47.0832 7.14553 46.6045 7.17258 46.0411L7.91301 30.6224C7.94006 30.059 8.41871 29.6243 8.9821 29.6513Z" fill="black"/>
<path fill-rule="evenodd" clip-rule="evenodd" d="M27.9326 30.0631C27.995 29.5025 28.5001 29.0987 29.0606 29.1612L33.5083 29.6565C33.5375 29.6597 33.5665 29.6642 33.5953 29.67C35.7175 30.0938 37.2471 31.179 38.3222 32.7923C39.3678 34.3613 39.9537 36.3835 40.3336 38.6581C40.335 38.6666 40.3364 38.675 40.3376 38.6835C40.3383 38.689 40.3391 38.6944 40.3397 38.6999L41.0802 44.6309C41.1365 45.0825 40.8873 45.5169 40.4689 45.6962L40.0667 44.7574C40.4689 45.6962 40.4694 45.696 40.4689 45.6962L40.4669 45.6971L40.4644 45.6981L40.4579 45.7008C40.453 45.7029 40.4467 45.7055 40.4392 45.7086C40.4311 45.7119 40.4216 45.7158 40.4105 45.7203C40.4009 45.7241 40.3903 45.7283 40.3785 45.7329C40.3275 45.753 40.2554 45.7804 40.1612 45.8142C39.9729 45.8818 39.6964 45.9748 39.3247 46.0844C38.5813 46.3038 37.4568 46.59 35.894 46.8741C32.7686 47.4424 27.889 48.0025 20.7953 48.0025C13.7002 48.0025 8.82058 47.4424 5.69552 46.8741C4.13286 46.59 3.00864 46.3038 2.26538 46.0844C1.89375 45.9747 1.61738 45.8818 1.4291 45.8142C1.33495 45.7804 1.26284 45.7529 1.21185 45.7329C1.18636 45.7229 1.16615 45.7147 1.15112 45.7085C1.1436 45.7054 1.13737 45.7028 1.13242 45.7008L1.12596 45.698L1.12345 45.697L1.12237 45.6965C1.12188 45.6963 1.12141 45.6961 1.52376 44.7574L1.12141 45.6961C0.703159 45.5168 0.453981 45.0825 0.510352 44.6309L1.25078 38.6999C1.2525 38.6861 1.2545 38.6723 1.25678 38.6587C1.63551 36.3836 2.22137 34.3619 3.26747 32.7931C4.343 31.1801 5.873 30.0953 7.99456 29.6701C8.02357 29.6643 8.05281 29.6597 8.08221 29.6565L12.415 29.1739C12.9755 29.1115 13.4806 29.5153 13.543 30.0759C13.6055 30.6364 13.2016 31.1415 12.6411 31.2039L8.35388 31.6814C6.7914 32.0043 5.73805 32.7697 4.96686 33.9263C4.16187 35.1335 3.63658 36.8109 3.275 38.9737L2.63955 44.0639C2.7031 44.0835 2.77107 44.104 2.84353 44.1254C3.51314 44.323 4.56615 44.5927 6.06094 44.8645C9.05077 45.4082 13.8069 45.96 20.7953 45.96C27.7823 45.96 32.5384 45.4082 35.5286 44.8645C37.0236 44.5927 38.0769 44.323 38.7467 44.1254C38.8192 44.104 38.8873 44.0834 38.9509 44.0638L38.3155 38.974C37.9526 36.8109 37.4273 35.1327 36.6225 33.9251C35.8516 32.7682 34.799 32.0031 33.237 31.6814L28.8346 31.1912C28.274 31.1287 27.8702 30.6237 27.9326 30.0631Z" fill="black"/>
<path fill-rule="evenodd" clip-rule="evenodd" d="M10.8847 43.5876C10.9315 43.0255 11.4251 42.6078 11.9872 42.6546C14.4113 42.8564 17.3293 42.9932 20.7927 42.9932C21.3567 42.9932 21.8139 43.4504 21.8139 44.0145C21.8139 44.5785 21.3567 45.0357 20.7927 45.0357C17.2755 45.0357 14.3008 44.8968 11.8177 44.6901C11.2556 44.6433 10.8379 44.1497 10.8847 43.5876Z" fill="black"/>
<path fill-rule="evenodd" clip-rule="evenodd" d="M32.6059 29.6513C33.1692 29.6243 33.6479 30.059 33.6749 30.6224L34.4154 46.0411C34.4424 46.6045 34.0076 47.0832 33.4443 47.1102C32.8809 47.1373 32.4022 46.7025 32.3752 46.1391L31.6347 30.7204C31.6077 30.157 32.0425 29.6784 32.6059 29.6513Z" fill="black"/>
<path fill-rule="evenodd" clip-rule="evenodd" d="M16.5992 26.4732C16.5981 26.4735 16.5961 26.4741 16.5932 26.4749C16.5834 26.4777 16.5637 26.4835 16.5354 26.4928C16.4785 26.5115 16.3878 26.5439 16.2728 26.5938C16.0417 26.6942 15.7197 26.8621 15.3786 27.1254C14.7231 27.6315 13.9689 28.5088 13.6617 30.0294V34.8049C13.8866 34.7505 14.1492 34.6321 14.4474 34.4332C14.8721 34.15 15.2944 33.7533 15.6794 33.3254C16.0607 32.9017 16.3823 32.4733 16.6096 32.1486C16.7225 31.9872 16.8106 31.8536 16.8695 31.762C16.8989 31.7163 16.9209 31.6812 16.9349 31.6585C16.942 31.6471 16.947 31.6389 16.95 31.634L16.9527 31.6296C17.1373 31.3222 17.4699 31.1336 17.8285 31.1336H18.5689C19.133 31.1336 19.5902 31.5909 19.5902 32.1549C19.5902 32.719 19.133 33.1762 18.5689 33.1762H18.3822C18.3512 33.2217 18.3181 33.2696 18.283 33.3197C18.0238 33.6901 17.6504 34.1886 17.1978 34.6916C16.7489 35.1906 16.1982 35.7207 15.5806 36.1326C14.9706 36.5393 14.2161 36.8834 13.3808 36.8834H12.6404C12.0764 36.8834 11.6191 36.4262 11.6191 35.8622V29.9311C11.6191 29.868 11.625 29.8051 11.6366 29.743C12.0358 27.6118 13.1186 26.2897 14.1304 25.5087C14.6292 25.1235 15.1038 24.8746 15.4593 24.7203C15.6376 24.6429 15.7877 24.5885 15.8983 24.5521C15.9537 24.534 15.9994 24.5202 16.0341 24.5104C16.0514 24.5054 16.066 24.5015 16.0777 24.4984C16.0836 24.4968 16.0887 24.4955 16.0931 24.4944L16.0991 24.4929L16.1016 24.4922L16.1028 24.4919C16.1034 24.4918 16.1039 24.4917 16.3477 25.4834L16.1039 24.4917C16.6516 24.3571 17.2048 24.692 17.3394 25.2397C17.4734 25.7848 17.1422 26.3353 16.5992 26.4732Z" fill="black"/>
<path fill-rule="evenodd" clip-rule="evenodd" d="M24.2461 25.2397C24.3808 24.692 24.9339 24.3571 25.4817 24.4917L25.2379 25.4834C25.4817 24.4917 25.4822 24.4918 25.4828 24.4919L25.4839 24.4922L25.4865 24.4929L25.4925 24.4944C25.4969 24.4955 25.502 24.4968 25.5078 24.4984C25.5195 24.5015 25.5341 24.5054 25.5515 24.5104C25.5861 24.5202 25.6318 24.534 25.6872 24.5521C25.7979 24.5885 25.948 24.6429 26.1262 24.7203C26.4818 24.8746 26.9563 25.1235 27.4552 25.5087C28.4669 26.2897 29.5497 27.6118 29.949 29.743C29.9606 29.8051 29.9664 29.868 29.9664 29.9311V35.8622C29.9664 36.4262 29.5092 36.8834 28.9451 36.8834H28.2047C27.3694 36.8834 26.615 36.5393 26.005 36.1326C25.3874 35.7207 24.8367 35.1906 24.3878 34.6916C23.9351 34.1886 23.5618 33.6901 23.3026 33.3197C23.2675 33.2696 23.2344 33.2217 23.2033 33.1762H23.0166C22.4526 33.1762 21.9954 32.719 21.9954 32.1549C21.9954 31.5909 22.4526 31.1336 23.0166 31.1336H23.7571C24.1155 31.1336 24.4477 31.3216 24.6324 31.6287L24.6329 31.6296L24.6356 31.634C24.6385 31.6389 24.6436 31.6471 24.6506 31.6585C24.6647 31.6812 24.6867 31.7163 24.7161 31.762C24.775 31.8536 24.863 31.9872 24.976 32.1486C25.2033 32.4733 25.5249 32.9017 25.9061 33.3254C26.2912 33.7533 26.7134 34.15 27.1382 34.4332C27.4364 34.6321 27.6989 34.7505 27.9239 34.8049V30.0294C27.6167 28.5088 26.8625 27.6315 26.207 27.1254C25.8659 26.8621 25.5439 26.6942 25.3128 26.5938C25.1978 26.5439 25.107 26.5115 25.0502 26.4928C25.0219 26.4835 25.0022 26.4777 24.9924 26.4749C24.9895 26.4741 24.9874 26.4735 24.9863 26.4732C24.4432 26.3353 24.1122 25.7848 24.2461 25.2397Z" fill="black"/>
<path fill-rule="evenodd" clip-rule="evenodd" d="M16.345 24.4622C16.909 24.4622 17.3663 24.9194 17.3663 25.4834V29.1874C17.3663 29.1891 17.3664 29.1928 17.3665 29.1984C17.3668 29.2111 17.3675 29.2332 17.3692 29.2634C17.3724 29.324 17.3792 29.4155 17.3931 29.5271C17.4217 29.7556 17.4772 30.0422 17.5792 30.3141C17.6828 30.5903 17.814 30.7972 17.9616 30.9284C18.0881 31.0408 18.2639 31.1336 18.5688 31.1336H19.4931C20.0571 31.1336 20.5144 31.5909 20.5144 32.1549C20.5144 32.719 20.0571 33.1762 19.4931 33.1762H18.5688C17.7619 33.1762 17.1038 32.8986 16.6048 32.4552C16.1269 32.0305 15.8411 31.4964 15.6668 31.0315C15.4908 30.5624 15.4073 30.1078 15.3664 29.7805C15.3456 29.6143 15.335 29.4741 15.3295 29.3727C15.3268 29.3218 15.3254 29.2802 15.3246 29.2495C15.3242 29.2341 15.324 29.2214 15.3239 29.2115L15.3238 29.1989L15.3237 29.1942V29.1923C15.3237 29.1919 15.3237 29.1907 16.3412 29.1907H15.3237V25.4834C15.3237 24.9194 15.781 24.4622 16.345 24.4622Z" fill="black"/>
<path fill-rule="evenodd" clip-rule="evenodd" d="M25.2404 24.4622C25.8045 24.4622 26.2617 24.9194 26.2617 25.4834V29.1907H25.2404C26.2617 29.1907 26.2617 29.1903 26.2617 29.1907V29.1923V29.1942V29.1989L26.2615 29.2115C26.2614 29.2214 26.2612 29.2341 26.2608 29.2495C26.2601 29.2802 26.2586 29.3218 26.2559 29.3727C26.2504 29.4741 26.2398 29.6143 26.2191 29.7805C26.1781 30.1078 26.0946 30.5624 25.9187 31.0315C25.7443 31.4964 25.4585 32.0305 24.9806 32.4552C24.4817 32.8986 23.8235 33.1762 23.0166 33.1762H22.2762C21.7121 33.1762 21.2549 32.719 21.2549 32.1549C21.2549 31.5909 21.7121 31.1336 22.2762 31.1336H23.0166C23.3215 31.1336 23.4974 31.0408 23.6238 30.9284C23.7714 30.7972 23.9026 30.5903 24.0062 30.3141C24.1082 30.0422 24.1637 29.7556 24.1923 29.5271C24.2062 29.4155 24.213 29.324 24.2163 29.2634C24.2179 29.2332 24.2186 29.2111 24.2189 29.1984C24.2191 29.1928 24.2191 29.1891 24.2191 29.1874V25.4834C24.2191 24.9194 24.6764 24.4622 25.2404 24.4622Z" fill="black"/>
<path fill-rule="evenodd" clip-rule="evenodd" d="M17.9561 35.0427C18.4072 34.7042 19.0474 34.7955 19.3859 35.2467L21.6097 38.211C21.7423 38.3878 21.8141 38.6028 21.8141 38.8238V46.9787C21.8141 47.5428 21.3568 48 20.7928 48C20.2287 48 19.7715 47.5428 19.7715 46.9787V39.1644L17.752 36.4725C17.4135 36.0213 17.5049 35.3811 17.9561 35.0427Z" fill="black"/>
<path fill-rule="evenodd" clip-rule="evenodd" d="M23.6295 35.0427C24.0807 35.3811 24.1721 36.0213 23.8336 36.4725L21.6098 39.4367C21.2713 39.8879 20.6311 39.9793 20.1799 39.6408C19.7288 39.3023 19.6374 38.6622 19.9759 38.211L22.1997 35.2467C22.5382 34.7955 23.1783 34.7042 23.6295 35.0427Z" fill="black"/>
<path fill-rule="evenodd" clip-rule="evenodd" d="M34.1702 43.1651C34.2445 43.7242 33.8515 44.2377 33.2923 44.312C30.8503 44.6364 27.7163 44.907 23.7836 44.9997C23.2198 45.013 22.7519 44.5667 22.7386 44.0028C22.7253 43.4389 23.1716 42.971 23.7355 42.9577C27.6003 42.8666 30.6603 42.6011 33.0234 42.2872C33.5825 42.2129 34.096 42.606 34.1702 43.1651Z" fill="black"/>
</svg>
