<svg width="12" height="7" viewBox="0 0 12 7" fill="none" xmlns="http://www.w3.org/2000/svg">
<path d="M6.00002 6.64999C5.88336 6.64999 5.77102 6.63332 5.66302 6.59999C5.55436 6.56666 5.45836 6.49999 5.37502 6.39999L0.850024 1.89999C0.716691 1.74999 0.650024 1.57499 0.650024 1.37499C0.650024 1.17499 0.725024 0.999991 0.875024 0.849991C1.02502 0.716658 1.20002 0.64999 1.40002 0.64999C1.60002 0.64999 1.77502 0.716658 1.92502 0.849991L6.00002 4.92499L10.1 0.849991C10.2334 0.699991 10.4 0.628991 10.6 0.636991C10.8 0.645657 10.975 0.716658 11.125 0.849991C11.275 0.999991 11.35 1.17899 11.35 1.38699C11.35 1.59566 11.275 1.76666 11.125 1.89999L6.62502 6.39999C6.54169 6.49999 6.44602 6.56666 6.33802 6.59999C6.22936 6.63332 6.11669 6.64999 6.00002 6.64999Z" fill="white"/>
</svg>
