<svg width="19" height="19" viewBox="0 0 19 19" fill="none" xmlns="http://www.w3.org/2000/svg">
<path d="M12.2189 12.4813C12.1064 12.3562 12.0502 12.2188 12.0502 12.0688C12.0502 11.9187 12.1064 11.7875 12.2189 11.675L13.6439 10.25H7.90645C7.74395 10.25 7.6097 10.1967 7.5037 10.0903C7.3972 9.98425 7.34395 9.85 7.34395 9.6875C7.34395 9.525 7.3972 9.3905 7.5037 9.284C7.6097 9.178 7.74395 9.125 7.90645 9.125H13.6439L12.2189 7.68125C12.1064 7.56875 12.0502 7.4375 12.0502 7.2875C12.0502 7.1375 12.1064 7.00625 12.2189 6.89375C12.3314 6.78125 12.4627 6.725 12.6127 6.725C12.7627 6.725 12.8877 6.775 12.9877 6.875L15.3314 9.21875C15.3939 9.28125 15.4409 9.353 15.4724 9.434C15.5034 9.5155 15.5189 9.6 15.5189 9.6875C15.5189 9.775 15.5034 9.85925 15.4724 9.94025C15.4409 10.0217 15.3939 10.0938 15.3314 10.1562L12.9877 12.5C12.8752 12.625 12.7472 12.6813 12.6037 12.6688C12.4597 12.6562 12.3314 12.5938 12.2189 12.4813ZM4.5502 16.25C4.1752 16.25 3.85645 16.1188 3.59395 15.8563C3.33145 15.5938 3.2002 15.275 3.2002 14.9V4.475C3.2002 4.1 3.33145 3.78125 3.59395 3.51875C3.85645 3.25625 4.1752 3.125 4.5502 3.125H9.03145C9.18145 3.125 9.31269 3.178 9.42519 3.284C9.53769 3.3905 9.59395 3.525 9.59395 3.6875C9.59395 3.85 9.53769 3.98425 9.42519 4.09025C9.31269 4.19675 9.18145 4.25 9.03145 4.25H4.5502C4.5002 4.25 4.4502 4.275 4.4002 4.325C4.3502 4.375 4.3252 4.425 4.3252 4.475V14.9C4.3252 14.95 4.3502 15 4.4002 15.05C4.4502 15.1 4.5002 15.125 4.5502 15.125H9.03145C9.18145 15.125 9.31269 15.178 9.42519 15.284C9.53769 15.3905 9.59395 15.525 9.59395 15.6875C9.59395 15.85 9.53769 15.9845 9.42519 16.091C9.31269 16.197 9.18145 16.25 9.03145 16.25H4.5502Z" fill="white"/>
</svg>
