<svg width="17" height="16" viewBox="0 0 17 16" fill="none" xmlns="http://www.w3.org/2000/svg">
<g id="logout">
<path id="Vector" d="M10.9171 10.6497C10.8171 10.5386 10.7671 10.4163 10.7671 10.283C10.7671 10.1497 10.8171 10.033 10.9171 9.93301L12.1837 8.66634H7.08372C6.93928 8.66634 6.81995 8.61901 6.72572 8.52434C6.63106 8.43012 6.58372 8.31079 6.58372 8.16634C6.58372 8.0219 6.63106 7.90234 6.72572 7.80767C6.81995 7.71345 6.93928 7.66634 7.08372 7.66634H12.1837L10.9171 6.38301C10.8171 6.28301 10.7671 6.16634 10.7671 6.03301C10.7671 5.89967 10.8171 5.78301 10.9171 5.68301C11.0171 5.58301 11.1337 5.53301 11.2671 5.53301C11.4004 5.53301 11.5115 5.57745 11.6004 5.66634L13.6837 7.74967C13.7393 7.80523 13.7811 7.86901 13.8091 7.94101C13.8366 8.01345 13.8504 8.08856 13.8504 8.16634C13.8504 8.24412 13.8366 8.31901 13.8091 8.39101C13.7811 8.46345 13.7393 8.52745 13.6837 8.58301L11.6004 10.6663C11.5004 10.7775 11.3866 10.8275 11.2591 10.8163C11.1311 10.8052 11.0171 10.7497 10.9171 10.6497ZM4.10039 13.9997C3.76706 13.9997 3.48372 13.883 3.25039 13.6497C3.01706 13.4163 2.90039 13.133 2.90039 12.7997V3.53301C2.90039 3.19967 3.01706 2.91634 3.25039 2.68301C3.48372 2.44967 3.76706 2.33301 4.10039 2.33301H8.08372C8.21706 2.33301 8.33372 2.38012 8.43372 2.47434C8.53372 2.56901 8.58372 2.68856 8.58372 2.83301C8.58372 2.97745 8.53372 3.09679 8.43372 3.19101C8.33372 3.28567 8.21706 3.33301 8.08372 3.33301H4.10039C4.05595 3.33301 4.0115 3.35523 3.96706 3.39967C3.92261 3.44412 3.90039 3.48856 3.90039 3.53301V12.7997C3.90039 12.8441 3.92261 12.8886 3.96706 12.933C4.0115 12.9775 4.05595 12.9997 4.10039 12.9997H8.08372C8.21706 12.9997 8.33372 13.0468 8.43372 13.141C8.53372 13.2357 8.58372 13.3552 8.58372 13.4997C8.58372 13.6441 8.53372 13.7637 8.43372 13.8583C8.33372 13.9526 8.21706 13.9997 8.08372 13.9997H4.10039Z" fill="#222222"/>
</g>
</svg>
