<svg width="332" height="332" viewBox="0 0 332 332" fill="none" xmlns="http://www.w3.org/2000/svg">
<path d="M131.417 41.5C155.264 41.5 178.135 50.9733 194.997 67.836C211.86 84.6986 221.333 107.569 221.333 131.417C221.333 153.688 213.172 174.162 199.753 189.932L203.488 193.667H214.417L283.583 262.833L262.833 283.583L193.667 214.417V203.488L189.932 199.753C174.162 213.172 153.688 221.333 131.417 221.333C107.569 221.333 84.6986 211.86 67.836 194.997C50.9733 178.135 41.5 155.264 41.5 131.417C41.5 107.569 50.9733 84.6986 67.836 67.836C84.6986 50.9733 107.569 41.5 131.417 41.5ZM131.417 69.1667C96.8333 69.1667 69.1667 96.8333 69.1667 131.417C69.1667 166 96.8333 193.667 131.417 193.667C166 193.667 193.667 166 193.667 131.417C193.667 96.8333 166 69.1667 131.417 69.1667Z" fill="black"/>
</svg>
