<svg width="16" height="16" viewBox="0 0 16 16" fill="none" xmlns="http://www.w3.org/2000/svg">
<path d="M3.5335 13.6663C3.20016 13.6663 2.91683 13.5497 2.6835 13.3163C2.45016 13.083 2.3335 12.7997 2.3335 12.4663L2.3335 3.53301C2.3335 3.19967 2.45016 2.91634 2.6835 2.68301C2.91683 2.44967 3.20016 2.33301 3.5335 2.33301L7.25016 2.33301C7.3835 2.33301 7.50016 2.38012 7.60016 2.47434C7.70016 2.56901 7.75016 2.68856 7.75016 2.83301C7.75016 2.97745 7.70016 3.09679 7.60016 3.19101C7.50016 3.28567 7.3835 3.33301 7.25016 3.33301L3.5335 3.33301C3.48905 3.33301 3.44461 3.35523 3.40016 3.39967C3.35572 3.44412 3.3335 3.48856 3.3335 3.53301L3.3335 12.4663C3.3335 12.5108 3.35572 12.5552 3.40016 12.5997C3.44461 12.6441 3.48905 12.6663 3.5335 12.6663L12.4668 12.6663C12.5113 12.6663 12.5557 12.6441 12.6002 12.5997C12.6446 12.5552 12.6668 12.5108 12.6668 12.4663L12.6668 8.74967C12.6668 8.61634 12.7139 8.49967 12.8082 8.39967C12.9028 8.29967 13.0224 8.24967 13.1668 8.24967C13.3113 8.24967 13.4308 8.29967 13.5255 8.39967C13.6197 8.49967 13.6668 8.61634 13.6668 8.74967L13.6668 12.4663C13.6668 12.7997 13.5502 13.083 13.3168 13.3163C13.0835 13.5497 12.8002 13.6663 12.4668 13.6663L3.5335 13.6663ZM6.1335 9.86634C6.0335 9.77745 5.9835 9.66345 5.9835 9.52434C5.9835 9.38567 6.0335 9.26634 6.1335 9.16634L11.9668 3.33301H9.8335C9.68905 3.33301 9.56972 3.28567 9.4755 3.19101C9.38083 3.09679 9.3335 2.97745 9.3335 2.83301C9.3335 2.68856 9.38083 2.56901 9.4755 2.47434C9.56972 2.38012 9.68905 2.33301 9.8335 2.33301L13.0668 2.33301C13.2335 2.33301 13.3753 2.39123 13.4922 2.50767C13.6086 2.62456 13.6668 2.76634 13.6668 2.93301V6.16634C13.6668 6.31079 13.6197 6.43012 13.5255 6.52434C13.4308 6.61901 13.3113 6.66634 13.1668 6.66634C13.0224 6.66634 12.9028 6.61901 12.8082 6.52434C12.7139 6.43012 12.6668 6.31079 12.6668 6.16634V4.03301L6.81683 9.88301C6.72794 9.98301 6.61683 10.033 6.4835 10.033C6.35016 10.033 6.2335 9.97745 6.1335 9.86634Z" fill="#C8C8C8"/>
</svg>
