<svg width="16" height="14" viewBox="0 0 16 14" fill="none" xmlns="http://www.w3.org/2000/svg">
<path d="M12.666 8V0H15.3327V8H12.666ZM9.99935 0C10.353 0 10.6921 0.140476 10.9422 0.390524C11.1922 0.640573 11.3327 0.979711 11.3327 1.33333V8C11.3327 8.36667 11.186 8.7 10.9393 8.94L6.55268 13.3333L5.84602 12.6267C5.66602 12.4467 5.55268 12.2 5.55268 11.92L5.57268 11.7133L6.20602 8.66667H1.99935C1.25935 8.66667 0.666016 8.06667 0.666016 7.33333V6C0.666016 5.82667 0.699349 5.66667 0.759349 5.51333L2.77268 0.813333C2.97268 0.333333 3.44602 0 3.99935 0H9.99935ZM9.99935 1.33333H3.97935L1.99935 6V7.33333H7.85268L7.09935 10.88L9.99935 7.98V1.33333Z" fill="#FFFFFF"/>
</svg>
