<svg width="16" height="14" viewBox="0 0 16 14" fill="none" xmlns="http://www.w3.org/2000/svg">
<path d="M3.33268 6.00008V14.0001H0.666016V6.00008H3.33268ZM5.99935 14.0001C5.64573 14.0001 5.30659 13.8596 5.05654 13.6096C4.80649 13.3595 4.66602 13.0204 4.66602 12.6667V6.00008C4.66602 5.63341 4.81268 5.30008 5.05935 5.06008L9.44602 0.666748L10.1527 1.37341C10.3327 1.55341 10.446 1.80008 10.446 2.07341L10.426 2.28675L9.79268 5.33341H13.9993C14.7393 5.33341 15.3327 5.93341 15.3327 6.66675V8.00008C15.3327 8.17341 15.2993 8.33341 15.2393 8.48675L13.226 13.1867C13.026 13.6667 12.5527 14.0001 11.9993 14.0001H5.99935ZM5.99935 12.6667H12.0193L13.9993 8.00008V6.66675H8.13935L8.89268 3.12008L5.99935 6.02008V12.6667Z" fill="#FFFFFF"/>
</svg>
