<svg width="16" height="14" viewBox="0 0 16 14" fill="none" xmlns="http://www.w3.org/2000/svg">
<path d="M12.6665 8V0H15.3332V8H12.6665ZM9.99984 0C10.3535 0 10.6926 0.140476 10.9426 0.390524C11.1927 0.640573 11.3332 0.979711 11.3332 1.33333V8C11.3332 8.36667 11.1865 8.7 10.9398 8.94L6.55317 13.3333L5.8465 12.6267C5.6665 12.4467 5.55317 12.2 5.55317 11.92L5.57317 11.7133L6.2065 8.66667H1.99984C1.25984 8.66667 0.666504 8.06667 0.666504 7.33333V6C0.666504 5.82667 0.699837 5.66667 0.759837 5.51333L2.77317 0.813333C2.97317 0.333333 3.4465 0 3.99984 0H9.99984ZM9.99984 1.33333H3.97984L1.99984 6V7.33333H7.85317L7.09984 10.88L9.99984 7.98V1.33333Z" fill="black"/>
</svg>
