<svg width="16" height="14" viewBox="0 0 16 14" fill="none" xmlns="http://www.w3.org/2000/svg">
<path d="M3.33317 5.99999V14H0.666504V5.99999H3.33317ZM5.99984 14C5.64621 14 5.30708 13.8595 5.05703 13.6095C4.80698 13.3594 4.6665 13.0203 4.6665 12.6667V5.99999C4.6665 5.63332 4.81317 5.29999 5.05984 5.05999L9.4465 0.666656L10.1532 1.37332C10.3332 1.55332 10.4465 1.79999 10.4465 2.07332L10.4265 2.28666L9.79317 5.33332H13.9998C14.7398 5.33332 15.3332 5.93332 15.3332 6.66666V7.99999C15.3332 8.17332 15.2998 8.33332 15.2398 8.48666L13.2265 13.1867C13.0265 13.6667 12.5532 14 11.9998 14H5.99984ZM5.99984 12.6667H12.0198L13.9998 7.99999V6.66666H8.13984L8.89317 3.11999L5.99984 6.01999V12.6667Z" fill="black"/>
</svg>
