<svg width="36" height="37" viewBox="0 0 36 37" fill="none" xmlns="http://www.w3.org/2000/svg">
<path fill-rule="evenodd" clip-rule="evenodd" d="M18.9525 2.87955C15.2503 2.64109 11.5907 3.79971 8.66075 6.13789C5.73081 8.47607 3.732 11.833 3.03958 15.5785C2.34716 19.324 3.00875 23.2005 4.90013 26.4802C5.09382 26.816 5.14489 27.2189 5.0414 27.5945L3.41817 33.4869L9.15128 31.8186C9.51678 31.7122 9.90874 31.7647 10.2355 31.9638C13.4266 33.9077 17.1983 34.5876 20.8425 33.876C24.4868 33.1643 27.753 31.11 30.028 28.0987C32.303 25.0873 33.4303 21.3261 33.1983 17.5211C32.9663 13.716 31.3909 10.1289 28.7679 7.43301C26.1449 4.73716 22.6547 3.11802 18.9525 2.87955ZM6.96077 3.88768C10.424 1.12389 14.7498 -0.245623 19.1259 0.0362447C23.502 0.318112 27.6275 2.23198 30.7279 5.41854C33.8283 8.6051 35.6905 12.8452 35.9647 17.3429C36.239 21.8405 34.9065 26.2864 32.2174 29.8459C29.5283 33.4053 25.6676 35.8336 21.3599 36.6748C17.2506 37.4773 13.0043 36.7828 9.34745 34.7224L4.16623 36.23L4.15968 36.232C3.68731 36.3727 3.18687 36.3808 2.71034 36.2555C2.23161 36.1297 1.79463 35.8738 1.44521 35.5146C1.09579 35.1555 0.846799 34.7064 0.72434 34.2144C0.602462 33.7247 0.610377 33.2104 0.747198 32.725L0.749172 32.718L2.21609 27.3929C0.211345 23.6345 -0.464365 19.2702 0.31641 15.0467C1.13487 10.6195 3.4975 6.65146 6.96077 3.88768Z" fill="white"/>
<path fill-rule="evenodd" clip-rule="evenodd" d="M13.0564 10.6491C12.1795 10.6777 11.3442 11.0474 10.7209 11.6858C10.0716 12.3507 9.70512 13.253 9.70166 14.1949C9.69765 15.8813 10.0178 17.5518 10.6438 19.1106C11.2699 20.6696 12.1896 22.0862 13.35 23.2788C14.5103 24.4714 15.8886 25.4166 17.4055 26.0601C18.9214 26.7031 20.5459 27.0322 22.1858 27.0284C23.1018 27.0209 23.978 26.6427 24.6246 25.9758C25.2449 25.3359 25.6058 24.4799 25.6378 23.5802L22.2062 21.5574L22.1986 21.5557L22.1904 21.558L19.4742 23.2294C19.0854 23.4686 18.6074 23.4974 18.194 23.3064C16.0292 22.3063 14.2962 20.5251 13.323 18.3001C13.1372 17.8753 13.1652 17.384 13.398 16.9844L15.024 14.1932L15.0265 14.1843L15.0248 14.1766L13.0564 10.6491ZM13.1617 7.7984C13.6205 7.79579 14.0715 7.91972 14.4679 8.15734C14.8626 8.39402 15.1886 8.73483 15.4122 9.14439L17.4417 12.7813C17.6813 13.2202 17.8042 13.7163 17.7981 14.2195C17.7921 14.7227 17.6573 15.2154 17.4072 15.6481L17.4047 15.6524L16.1699 17.7721C16.7782 18.8554 17.6537 19.7553 18.7078 20.3805L20.7744 19.1088C21.1954 18.8518 21.6748 18.7132 22.1644 18.707C22.654 18.7008 23.1366 18.8272 23.5636 19.0734L23.575 19.08L27.1023 21.1593C27.5008 21.389 27.8324 21.724 28.0627 22.1298C28.2944 22.5381 28.415 23.0029 28.4119 23.4755L28.4119 23.4787L27.026 23.4673L28.4119 23.4723L28.4119 23.4755C28.4053 25.1672 27.75 26.7882 26.5881 27.9866C25.4255 29.1858 23.8495 29.8652 22.2024 29.8772L22.196 29.8773C20.1898 29.8824 18.2024 29.4801 16.3479 28.6935C14.4935 27.9068 12.8085 26.7512 11.3899 25.2932C9.97133 23.8352 8.84702 22.1035 8.08161 20.1975C7.31619 18.2916 6.92475 16.2489 6.92978 14.187C6.93567 12.491 7.59536 10.8649 8.76434 9.66775C9.93219 8.47175 11.5132 7.7997 13.1617 7.7984ZM13.1617 7.7984L13.1555 7.79845L13.1665 9.22285L13.1665 7.7984L13.1617 7.7984Z" fill="white"/>
</svg>
